<?xml version="1.0" encoding="UTF-8" standalone="no"?>
<!DOCTYPE svg PUBLIC "-//W3C//DTD SVG 1.1//EN"
 "http://www.w3.org/Graphics/SVG/1.1/DTD/svg11.dtd">
<!-- Generated by graphviz version 2.40.1 (20161225.0304)
 -->
<!-- Title: G Pages: 1 -->
<svg width="1040pt" height="196pt"
 viewBox="0.00 0.00 1040.00 196.00" xmlns="http://www.w3.org/2000/svg" xmlns:xlink="http://www.w3.org/1999/xlink">
<g id="graph0" class="graph" transform="scale(1 1) rotate(0) translate(4 192)">
<title>G</title>
<polygon fill="#ffffff" stroke="transparent" points="-4,4 -4,-192 1036,-192 1036,4 -4,4"/>
<g id="clust1" class="cluster">
<title>cluster_G</title>
<path fill="#808080" fill-opacity="0.094118" stroke="#000000" d="M20,-8C20,-8 1012,-8 1012,-8 1018,-8 1024,-14 1024,-20 1024,-20 1024,-168 1024,-168 1024,-174 1018,-180 1012,-180 1012,-180 20,-180 20,-180 14,-180 8,-174 8,-168 8,-168 8,-20 8,-20 8,-14 14,-8 20,-8"/>
</g>
<g id="clust2" class="cluster">
<title>cluster_polls__finder</title>
<path fill="#808080" fill-opacity="0.094118" stroke="#000000" d="M218,-16C218,-16 276,-16 276,-16 282,-16 288,-22 288,-28 288,-28 288,-78 288,-78 288,-84 282,-90 276,-90 276,-90 218,-90 218,-90 212,-90 206,-84 206,-78 206,-78 206,-28 206,-28 206,-22 212,-16 218,-16"/>
<text text-anchor="middle" x="247" y="-74.8" font-family="Times,serif" font-size="14.00" fill="#000000">polls.finder</text>
</g>
<g id="clust3" class="cluster">
<title>cluster_polls__finder__Finder</title>
<path fill="#808080" fill-opacity="0.094118" stroke="#000000" d="M308,-16C308,-16 402,-16 402,-16 408,-16 414,-22 414,-28 414,-28 414,-78 414,-78 414,-84 408,-90 402,-90 402,-90 308,-90 308,-90 302,-90 296,-84 296,-78 296,-78 296,-28 296,-28 296,-22 302,-16 308,-16"/>
<text text-anchor="middle" x="355" y="-74.8" font-family="Times,serif" font-size="14.00" fill="#000000">polls.finder.Finder</text>
</g>
<g id="clust4" class="cluster">
<title>cluster_polls__models</title>
<path fill="#808080" fill-opacity="0.094118" stroke="#000000" d="M932,-16C932,-16 1004,-16 1004,-16 1010,-16 1016,-22 1016,-28 1016,-28 1016,-160 1016,-160 1016,-166 1010,-172 1004,-172 1004,-172 932,-172 932,-172 926,-172 920,-166 920,-160 920,-160 920,-28 920,-28 920,-22 926,-16 932,-16"/>
<text text-anchor="middle" x="968" y="-156.8" font-family="Times,serif" font-size="14.00" fill="#000000">polls.models</text>
</g>
<g id="clust5" class="cluster">
<title>cluster_polls__models__Account</title>
<path fill="#808080" fill-opacity="0.094118" stroke="#000000" d="M786,-98C786,-98 900,-98 900,-98 906,-98 912,-104 912,-110 912,-110 912,-160 912,-160 912,-166 906,-172 900,-172 900,-172 786,-172 786,-172 780,-172 774,-166 774,-160 774,-160 774,-110 774,-110 774,-104 780,-98 786,-98"/>
<text text-anchor="middle" x="843" y="-156.8" font-family="Times,serif" font-size="14.00" fill="#000000">polls.models.Account</text>
</g>
<g id="clust6" class="cluster">
<title>cluster_polls__models__Person</title>
<path fill="#808080" fill-opacity="0.094118" stroke="#000000" d="M504,-98C504,-98 754,-98 754,-98 760,-98 766,-104 766,-110 766,-110 766,-160 766,-160 766,-166 760,-172 754,-172 754,-172 504,-172 504,-172 498,-172 492,-166 492,-160 492,-160 492,-110 492,-110 492,-104 498,-98 504,-98"/>
<text text-anchor="middle" x="629" y="-156.8" font-family="Times,serif" font-size="14.00" fill="#000000">polls.models.Person</text>
</g>
<g id="clust7" class="cluster">
<title>cluster_polls__views</title>
<path fill="#808080" fill-opacity="0.094118" stroke="#000000" d="M256,-98C256,-98 472,-98 472,-98 478,-98 484,-104 484,-110 484,-110 484,-160 484,-160 484,-166 478,-172 472,-172 472,-172 256,-172 256,-172 250,-172 244,-166 244,-160 244,-160 244,-110 244,-110 244,-104 250,-98 256,-98"/>
<text text-anchor="middle" x="364" y="-156.8" font-family="Times,serif" font-size="14.00" fill="#000000">polls.views</text>
</g>
<!-- polls__finder -->
<g id="node1" class="node">
<title>polls__finder</title>
<ellipse fill="#ffffff" fill-opacity="0.698039" stroke="#000000" cx="184" cy="-124" rx="50.2975" ry="18"/>
<text text-anchor="middle" x="184" y="-119.8" font-family="Times,serif" font-size="14.00" fill="#000000">polls.finder</text>
</g>
<!-- polls__models -->
<g id="node2" class="node">
<title>polls__models</title>
<ellipse fill="#ffffff" fill-opacity="0.698039" stroke="#000000" cx="127" cy="-42" rx="55.1252" ry="18"/>
<text text-anchor="middle" x="127" y="-37.8" font-family="Times,serif" font-size="14.00" fill="#000000">polls.models</text>
</g>
<!-- polls__finder&#45;&gt;polls__models -->
<g id="edge5" class="edge">
<title>polls__finder&#45;&gt;polls__models</title>
<path fill="none" stroke="#000000" d="M171.6318,-106.2072C163.8637,-95.032 153.7114,-80.4269 145.0524,-67.9702"/>
<polygon fill="#000000" stroke="#000000" points="147.9257,-65.9715 139.344,-59.7581 142.1779,-69.9669 147.9257,-65.9715"/>
</g>
<!-- polls__views -->
<g id="node3" class="node">
<title>polls__views</title>
<ellipse fill="#ffffff" fill-opacity="0.698039" stroke="#000000" cx="66" cy="-124" rx="50.2975" ry="18"/>
<text text-anchor="middle" x="66" y="-119.8" font-family="Times,serif" font-size="14.00" fill="#000000">polls.views</text>
</g>
<!-- polls__views&#45;&gt;polls__models -->
<g id="edge1" class="edge">
<title>polls__views&#45;&gt;polls__models</title>
<path fill="none" stroke="#000000" d="M79.2361,-106.2072C87.5494,-95.032 98.4141,-80.4269 107.6807,-67.9702"/>
<polygon fill="#000000" stroke="#000000" points="110.6293,-69.8705 113.7897,-59.7581 105.0129,-65.6925 110.6293,-69.8705"/>
</g>
<!-- polls__finder__Finder -->
<g id="node4" class="node">
<title>polls__finder__Finder</title>
<ellipse fill="#ff9999" fill-opacity="0.698039" stroke="#000000" cx="247" cy="-42" rx="33.3925" ry="18"/>
<text text-anchor="middle" x="247" y="-37.8" font-family="Times,serif" font-size="14.00" fill="#000000">Finder</text>
</g>
<!-- polls__finder__Finder__find -->
<g id="node5" class="node">
<title>polls__finder__Finder__find</title>
<ellipse fill="#ff6565" fill-opacity="0.698039" stroke="#000000" cx="331" cy="-42" rx="27" ry="18"/>
<text text-anchor="middle" x="331" y="-37.8" font-family="Times,serif" font-size="14.00" fill="#000000">find</text>
</g>
<!-- polls__models__Account -->
<g id="node6" class="node">
<title>polls__models__Account</title>
<ellipse fill="#ccff99" fill-opacity="0.698039" stroke="#000000" cx="968" cy="-124" rx="40.1317" ry="18"/>
<text text-anchor="middle" x="968" y="-119.8" font-family="Times,serif" font-size="14.00" fill="#000000">Account</text>
</g>
<!-- polls__models__Person -->
<g id="node7" class="node">
<title>polls__models__Person</title>
<ellipse fill="#ccff99" fill-opacity="0.698039" stroke="#000000" cx="968" cy="-42" rx="34.3614" ry="18"/>
<text text-anchor="middle" x="968" y="-37.8" font-family="Times,serif" font-size="14.00" fill="#000000">Person</text>
</g>
<!-- polls__models__Account&#45;&gt;polls__models__Person -->
<g id="edge4" class="edge">
<title>polls__models__Account&#45;&gt;polls__models__Person</title>
<path fill="none" stroke="#000000" d="M968,-105.8015C968,-95.3976 968,-82.1215 968,-70.3768"/>
<polygon fill="#000000" stroke="#000000" points="971.5001,-70.1476 968,-60.1476 964.5001,-70.1476 971.5001,-70.1476"/>
</g>
<!-- polls__models__Account____str__ -->
<g id="node8" class="node">
<title>polls__models__Account____str__</title>
<ellipse fill="#b2ff65" fill-opacity="0.698039" stroke="#000000" cx="843" cy="-124" rx="36.775" ry="18"/>
<text text-anchor="middle" x="843" y="-119.8" font-family="Times,serif" font-size="14.00" fill="#000000">__str__</text>
</g>
<!-- polls__models__Person____str__ -->
<g id="node9" class="node">
<title>polls__models__Person____str__</title>
<ellipse fill="#b2ff65" fill-opacity="0.698039" stroke="#000000" cx="721" cy="-124" rx="36.775" ry="18"/>
<text text-anchor="middle" x="721" y="-119.8" font-family="Times,serif" font-size="14.00" fill="#000000">__str__</text>
</g>
<!-- polls__models__Person__was_joined_recently -->
<g id="node10" class="node">
<title>polls__models__Person__was_joined_recently</title>
<ellipse fill="#b2ff65" fill-opacity="0.698039" stroke="#000000" cx="583" cy="-124" rx="83.0718" ry="18"/>
<text text-anchor="middle" x="583" y="-119.8" font-family="Times,serif" font-size="14.00" fill="#000000">was_joined_recently</text>
</g>
<!-- polls__views__index -->
<g id="node11" class="node">
<title>polls__views__index</title>
<ellipse fill="#99feff" fill-opacity="0.698039" stroke="#000000" cx="446" cy="-124" rx="29.5104" ry="18"/>
<text text-anchor="middle" x="446" y="-119.8" font-family="Times,serif" font-size="14.00" fill="#000000">index</text>
</g>
<!-- polls__views__list -->
<g id="node12" class="node">
<title>polls__views__list</title>
<ellipse fill="#99feff" fill-opacity="0.698039" stroke="#000000" cx="371" cy="-124" rx="27" ry="18"/>
<text text-anchor="middle" x="371" y="-119.8" font-family="Times,serif" font-size="14.00" fill="#000000">list</text>
</g>
<!-- polls__views__transfer -->
<g id="node13" class="node">
<title>polls__views__transfer</title>
<ellipse fill="#99feff" fill-opacity="0.698039" stroke="#000000" cx="289" cy="-124" rx="37.2248" ry="18"/>
<text text-anchor="middle" x="289" y="-119.8" font-family="Times,serif" font-size="14.00" fill="#000000">transfer</text>
</g>
<!-- polls__views__transfer&#45;&gt;polls__finder__Finder -->
<g id="edge3" class="edge">
<title>polls__views__transfer&#45;&gt;polls__finder__Finder</title>
<path fill="none" stroke="#000000" d="M279.8866,-106.2072C274.2343,-95.1718 266.869,-80.7919 260.5418,-68.4388"/>
<polygon fill="#000000" stroke="#000000" points="263.6253,-66.7812 255.9513,-59.4764 257.395,-69.9724 263.6253,-66.7812"/>
</g>
<!-- polls__views__transfer&#45;&gt;polls__finder__Finder__find -->
<g id="edge2" class="edge">
<title>polls__views__transfer&#45;&gt;polls__finder__Finder__find</title>
<path fill="none" stroke="#000000" d="M298.1134,-106.2072C303.8041,-95.0967 311.2313,-80.5961 317.5872,-68.187"/>
<polygon fill="#000000" stroke="#000000" points="320.7486,-69.6922 322.1922,-59.1961 314.5183,-66.501 320.7486,-69.6922"/>
</g>
</g>
</svg>
